<?xml version="1.0" encoding="UTF-8"?>
<svg version="1.1" xmlns="http://www.w3.org/2000/svg" width="128" height="55">
<path d="M0 0 C1.32 0.33 2.64 0.66 4 1 C2.8851781 5.90751495 0.69160581 10.33312332 -1.38476562 14.89257812 C-3.31597637 19.20820129 -4.80924566 23.42247703 -6 28 C-5.01 27.67 -4.02 27.34 -3 27 C-1.875 28.5 -1.875 28.5 -1 31 C-1.42401652 33.7773082 -2.18891935 36.29639783 -3 39 C-2.52949219 38.24074219 -2.05898437 37.48148438 -1.57421875 36.69921875 C-0.95160156 35.70535156 -0.32898438 34.71148437 0.3125 33.6875 C0.92738281 32.70136719 1.54226562 31.71523438 2.17578125 30.69921875 C4.90026989 26.66790901 4.90026989 26.66790901 7 25 C8.00933594 24.82597656 8.00933594 24.82597656 9.0390625 24.6484375 C11.25623232 24.16302117 11.25623232 24.16302117 12.2734375 21.6640625 C12.63695313 20.66117188 13.00046875 19.65828125 13.375 18.625 C15.08616979 14.21504083 16.91040266 9.99501923 19.125 5.8125 C19.84042969 4.46091797 19.84042969 4.46091797 20.5703125 3.08203125 C22 1 22 1 25 0 C25.66 0.33 26.32 0.66 27 1 C25.58114182 11.17097282 20.61845343 20.1004718 15.59155273 28.92358398 C13.69843706 32.32228769 13 34.00607564 13 38 C13.44730469 37.36191406 13.89460938 36.72382812 14.35546875 36.06640625 C14.96003906 35.24011719 15.56460938 34.41382813 16.1875 33.5625 C16.77917969 32.73878906 17.37085938 31.91507813 17.98046875 31.06640625 C20.31932973 28.67325837 21.7220036 28.31138135 25 28 C26.60080151 32.00200378 25.29279692 35.04556236 24 39 C24.556875 38.195625 25.11375 37.39125 25.6875 36.5625 C28 34 28 34 30.625 33.0625 C31.40875 33.041875 32.1925 33.02125 33 33 C33.66 33.66 34.32 34.32 35 35 C37.57061311 35.64767793 37.57061311 35.64767793 40 36 C40 37.32 40 38.64 40 40 C40.75925781 39.566875 41.51851562 39.13375 42.30078125 38.6875 C43.29464844 38.130625 44.28851563 37.57375 45.3125 37 C46.29863281 36.443125 47.28476563 35.88625 48.30078125 35.3125 C51 34 51 34 54 34 C54 34.99 54 35.98 54 37 C51.8046875 38.82421875 51.8046875 38.82421875 48.875 40.6875 C47.92367187 41.31011719 46.97234375 41.93273438 45.9921875 42.57421875 C42.66918188 44.15763527 40.63480692 44.4376184 37 44 C36.34 43.34 35.68 42.68 35 42 C34.236875 42.37125 33.47375 42.7425 32.6875 43.125 C31.800625 43.41375 30.91375 43.7025 30 44 C29.01 43.34 28.02 42.68 27 42 C26.46375 42.680625 25.9275 43.36125 25.375 44.0625 C24.59125 44.701875 23.8075 45.34125 23 46 C20 45.625 20 45.625 17 45 C14.68019054 45.82342532 14.68019054 45.82342532 13 47 C13 47.66 13 48.32 13 49 C10.6875 49.25 10.6875 49.25 8 49 C6.1875 47 6.1875 47 5 45 C4.2575 45.66 3.515 46.32 2.75 47 C0 49 0 49 -4 49 C-4 48.34 -4 47.68 -4 47 C-5.32 46.67 -6.64 46.34 -8 46 C-8.33 44.35 -8.66 42.7 -9 41 C-10.32 42.98 -11.64 44.96 -13 47 C-14.32 46.67 -15.64 46.34 -17 46 C-14.7809339 30.08393972 -7.13473158 14.26946316 0 0 Z " fill="#EEEEEE" transform="translate(74,0)"/>
<path d="M0 0 C2.125 0.375 2.125 0.375 4 1 C3.3289147 5.47390202 1.69974071 9.39593752 -0.125 13.5 C-0.43123291 14.19762451 -0.73746582 14.89524902 -1.05297852 15.61401367 C-3.6366092 21.40168852 -6.57173057 26.92015223 -9.71484375 32.42578125 C-11.22333522 34.96781743 -11.22333522 34.96781743 -11 38 C-8.36 34.37 -5.72 30.74 -3 27 C-1.68 27.33 -0.36 27.66 1 28 C0.72285156 28.86882813 0.44570313 29.73765625 0.16015625 30.6328125 C-0.20207031 31.78523438 -0.56429687 32.93765625 -0.9375 34.125 C-1.47697266 35.83042969 -1.47697266 35.83042969 -2.02734375 37.5703125 C-2.91898339 40.71432699 -3.53351014 43.76894393 -4 47 C-5.32 47 -6.64 47 -8 47 C-8.495 45.02 -8.495 45.02 -9 43 C-9.66 43.99 -10.32 44.98 -11 46 C-13.5 46.1875 -13.5 46.1875 -16 46 C-18.32357511 45.81509993 -18.32357511 45.81509993 -21 48 C-23 47.625 -23 47.625 -25 47 C-25.99 47 -26.98 47 -28 47 C-28.33 47.33 -28.66 47.66 -29 48 C-31.9375 48.1875 -31.9375 48.1875 -35 48 C-35.66 47.34 -36.32 46.68 -37 46 C-37.44730469 46.3609375 -37.89460938 46.721875 -38.35546875 47.09375 C-43.30324379 50.8916157 -43.30324379 50.8916157 -46.8125 51.4375 C-49 51 -49 51 -51 49 C-52.23368053 41.90633698 -48.7511511 35.88483337 -45 30 C-41.64705882 27 -41.64705882 27 -39 27 C-38.896875 25.989375 -38.79375 24.97875 -38.6875 23.9375 C-37.96295233 19.78781792 -36.77730734 16.78643737 -35 13 C-33.68 13.33 -32.36 13.66 -31 14 C-31.36788272 17.86276851 -31.89708019 19.85591227 -34.1875 23.0625 C-34.785625 24.031875 -35.38375 25.00125 -36 26 C-35.34 27.65 -34.68 29.3 -34 31 C-31.69 24.73 -29.38 18.46 -27 12 C-24.525 12.495 -24.525 12.495 -22 13 C-24.70104361 22.42995928 -27.87152311 31.70569001 -31 41 C-30.505 41.495 -30.505 41.495 -30 42 C-28.78058837 39.81805786 -27.5722507 37.63160667 -26.375 35.4375 C-26.01108154 34.77089355 -25.64716309 34.10428711 -25.2722168 33.41748047 C-22.0731025 27.41817545 -19.72083658 21.27591582 -17.51953125 14.8515625 C-16 12 -16 12 -13.32421875 11.0859375 C-12.55722656 11.05757812 -11.79023437 11.02921875 -11 11 C-11.63693259 14.5922998 -12.5870672 17.87918241 -13.84765625 21.30078125 C-14.20537109 22.27724609 -14.56308594 23.25371094 -14.93164062 24.25976562 C-15.30482422 25.26716797 -15.67800781 26.27457031 -16.0625 27.3125 C-16.43955078 28.33923828 -16.81660156 29.36597656 -17.20507812 30.42382812 C-18.13346068 32.95043887 -19.06520129 35.47575761 -20 38 C-19.505 38.495 -19.505 38.495 -19 39 C-16.95067768 34.45168636 -14.93783239 29.8930983 -13.03515625 25.28125 C-12.70966797 24.49363281 -12.38417969 23.70601562 -12.04882812 22.89453125 C-11.39184123 21.29954921 -10.73818679 19.70319038 -10.08789062 18.10546875 C-4.40269886 4.40269886 -4.40269886 4.40269886 0 0 Z M-40 32 C-44.4353214 36.9477494 -44.4353214 36.9477494 -47 43 C-46.71260075 45.24240782 -46.71260075 45.24240782 -46 47 C-42.64401147 43.1811165 -40.6726696 39.75390306 -39 35 C-39.33 34.01 -39.66 33.02 -40 32 Z " fill="#EEEEEE" transform="translate(60,1)"/>
<path d="M0 0 C1.32 0 2.64 0 4 0 C3.4135444 4.38246737 2.31623084 8.07074038 0.6015625 12.140625 C-0.11773438 13.87119141 -0.11773438 13.87119141 -0.8515625 15.63671875 C-1.35429687 16.82910156 -1.85703125 18.02148438 -2.375 19.25 C-6.56296531 29.20732376 -10.56468374 38.88944629 -12.1875 49.625 C-12.34605469 50.64851563 -12.50460938 51.67203125 -12.66796875 52.7265625 C-12.83232422 53.85191406 -12.83232422 53.85191406 -13 55 C-14.32 55 -15.64 55 -17 55 C-17.35735225 46.38255948 -16.23931963 38.01243005 -15.0625 29.5 C-14.78641887 27.46441674 -14.51223656 25.42859194 -14.23934937 23.39257812 C-13.97855639 21.45019422 -13.7141731 19.50829345 -13.44970703 17.56640625 C-12.95340671 13.63049147 -12.60145672 9.69832983 -12.34155273 5.74023438 C-12.22884033 5.16595703 -12.11612793 4.59167969 -12 4 C-11.34 3.67 -10.68 3.34 -10 3 C-9.34 3.33 -8.68 3.66 -8 4 C-8 9.28 -8 14.56 -8 20 C-5.36 13.4 -2.72 6.8 0 0 Z " fill="#EEEEEE" transform="translate(17,0)"/>
</svg>
